<svg width="16" height="17" viewBox="0 0 16 17" fill="none" xmlns="http://www.w3.org/2000/svg">
<path d="M7.65867 15.0027C7.85467 15.1073 8.10067 15.1067 8.29667 15.002C13.638 12.1327 14.0173 6.52668 14.0127 4.93268C14.0122 4.80456 13.9743 4.67938 13.9037 4.57245C13.8332 4.46553 13.7329 4.38151 13.6153 4.33068L8.24867 1.95334C8.16326 1.9157 8.07093 1.89631 7.9776 1.89642C7.88426 1.89654 7.79198 1.91615 7.70667 1.95401L2.37734 4.33134C2.26147 4.3822 2.16266 4.4653 2.09269 4.57073C2.02272 4.67616 1.98453 4.79948 1.98267 4.92601C1.96 6.51201 2.27934 12.13 7.65867 15.0027ZM5.78267 7.36201L7.31134 8.89068L10.1733 6.02868L11.116 6.97134L7.31134 10.776L4.84 8.30468L5.78267 7.36201Z" fill="white"/>
</svg>
