<svg width="12" height="13" viewBox="0 0 12 13" fill="none" xmlns="http://www.w3.org/2000/svg">
<path d="M7.42618 6.50004L11.7046 2.22124C12.0985 1.82737 12.0985 1.18878 11.7046 0.79497C11.3108 0.401101 10.6723 0.401101 10.2785 0.79497L5.99998 5.07383L1.72148 0.794913C1.32765 0.401044 0.68917 0.401044 0.295334 0.794913C-0.0984448 1.18878 -0.0984448 1.82737 0.295334 2.22118L4.57383 6.49998L0.295334 10.7788C-0.0984448 11.1727 -0.0984448 11.8113 0.295334 12.2051C0.68917 12.599 1.32765 12.599 1.72148 12.2051L5.99998 7.92625L10.2785 12.2051C10.6723 12.599 11.3108 12.599 11.7046 12.2051C12.0985 11.8112 12.0985 11.1727 11.7046 10.7788L7.42618 6.50004Z" fill="white"/>
</svg>
