<svg width="13" height="14" viewBox="0 0 13 14" fill="none" xmlns="http://www.w3.org/2000/svg">
<path d="M3 13.5H0.999999C0.823188 13.5 0.653618 13.4297 0.528594 13.3047C0.40357 13.1797 0.333332 13.0101 0.333332 12.8333V7.49998C0.333332 7.32317 0.40357 7.1536 0.528594 7.02858C0.653618 6.90355 0.823188 6.83331 0.999999 6.83331H3C3.17681 6.83331 3.34638 6.90355 3.4714 7.02858C3.59643 7.1536 3.66667 7.32317 3.66667 7.49998V12.8333C3.66667 13.0101 3.59643 13.1797 3.4714 13.3047C3.34638 13.4297 3.17681 13.5 3 13.5ZM7.66667 13.5H5.66667C5.48985 13.5 5.32029 13.4297 5.19526 13.3047C5.07024 13.1797 5 13.0101 5 12.8333V1.49998C5 1.32317 5.07024 1.1536 5.19526 1.02858C5.32029 0.903551 5.48985 0.833313 5.66667 0.833313H7.66667C7.84348 0.833313 8.01305 0.903551 8.13807 1.02858C8.26309 1.1536 8.33333 1.32317 8.33333 1.49998V12.8333C8.33333 13.0101 8.26309 13.1797 8.13807 13.3047C8.01305 13.4297 7.84348 13.5 7.66667 13.5ZM12.3333 13.5H10.3333C10.1565 13.5 9.98695 13.4297 9.86193 13.3047C9.7369 13.1797 9.66667 13.0101 9.66667 12.8333V5.49998C9.66667 5.32317 9.7369 5.1536 9.86193 5.02858C9.98695 4.90355 10.1565 4.83331 10.3333 4.83331H12.3333C12.5101 4.83331 12.6797 4.90355 12.8047 5.02858C12.9298 5.1536 13 5.32317 13 5.49998V12.8333C13 13.0101 12.9298 13.1797 12.8047 13.3047C12.6797 13.4297 12.5101 13.5 12.3333 13.5Z" fill="white"/>
</svg>
