<svg width="212" height="153" viewBox="0 0 212 153" fill="none" xmlns="http://www.w3.org/2000/svg">
    <path d="M143.484 41.3405C143.203 40.3808 142.821 39.284 142.404 38.0679C141.983 36.8561 141.456 35.6134 140.925 34.3132C140.381 33.0351 139.767 31.7879 139.188 30.5762C138.586 29.3954 137.976 28.3074 137.45 27.3522C136.923 26.3969 136.431 25.6495 136.098 25.1011C135.756 24.5572 135.563 24.2476 135.563 24.2476L132.692 29.6961C132.692 29.6961 132.6 29.6474 132.42 29.559C132.24 29.4705 131.981 29.3246 131.626 29.1698C130.915 28.8558 129.892 28.3649 128.567 27.8033C125.908 26.6932 122.028 25.2736 117.231 24.168C116.933 24.0972 116.63 24.0265 116.327 23.9513C116.02 23.8938 115.708 23.8319 115.397 23.77C114.769 23.6505 114.133 23.5311 113.479 23.4073C112.834 23.2702 112.162 23.2083 111.487 23.1022C110.811 23.0093 110.126 22.9031 109.428 22.8235C108.731 22.7616 108.024 22.6953 107.304 22.629C106.949 22.598 106.589 22.567 106.225 22.5317C105.86 22.514 105.496 22.5007 105.128 22.483C104.395 22.4521 103.653 22.4211 102.903 22.3901C102.152 22.3901 101.397 22.399 100.638 22.399C94.551 22.4919 88.0822 23.3852 81.8855 25.2073C75.6888 27.0205 69.8124 29.7801 64.7348 32.982C59.6484 36.1839 55.3739 39.8369 52.0429 43.2554C51.2267 44.1267 50.4367 44.9537 49.7038 45.7586C49.0104 46.5944 48.3521 47.386 47.7289 48.1335C47.0926 48.8632 46.5791 49.6106 46.0788 50.2828C45.5829 50.9594 45.1309 51.5786 44.7184 52.1358C44.1302 53.0465 43.6405 53.804 43.2621 54.3888C42.7593 55.1661 42.9789 56.2031 43.7534 56.7101V56.7101C44.9016 57.4618 46.4364 57.1893 47.2562 56.0888C47.5447 55.7014 47.873 55.2611 48.238 54.7716C49.9101 52.7859 52.2492 49.898 55.5802 46.9748C58.8672 44.0205 63.0101 40.9292 67.8288 38.3288C72.6343 35.7239 78.0893 33.5967 83.7243 32.3452C89.3593 31.0892 95.1347 30.6867 100.493 30.9609C101.16 31.0007 101.827 31.0405 102.481 31.0803C103.135 31.1511 103.78 31.2218 104.421 31.2926C104.741 31.328 105.057 31.3634 105.373 31.3943C105.685 31.443 106.001 31.4916 106.308 31.5403C106.927 31.6376 107.541 31.7349 108.147 31.8322C108.748 31.9383 109.336 32.0754 109.92 32.1948C110.499 32.323 111.074 32.4115 111.631 32.5707C112.184 32.7167 112.733 32.8582 113.268 32.9953C113.536 33.066 113.799 33.1324 114.063 33.2031C114.322 33.2827 114.576 33.3668 114.831 33.4419C118.903 34.6758 122.142 36.1087 124.35 37.2055C125.451 37.7583 126.294 38.2403 126.882 38.5411C127.176 38.6914 127.387 38.833 127.536 38.917C127.681 39.0054 127.755 39.0497 127.755 39.0497L124.885 44.4982H144.353C144.353 44.4982 144.037 43.251 143.484 41.314V41.3405Z" fill="url(#paint0_linear_179_618)"/>
    <path d="M74.2874 130.911C74.556 131.829 74.9212 132.878 75.3199 134.041C75.7228 135.2 76.2265 136.388 76.7344 137.632C77.2548 138.854 77.8424 140.047 78.3965 141.206C78.9715 142.335 79.5549 143.375 80.0586 144.289C80.5622 145.203 81.0323 145.917 81.3513 146.442C81.6787 146.962 81.8634 147.258 81.8634 147.258L84.6083 142.047C84.6083 142.047 84.6965 142.094 84.8686 142.178C85.0406 142.263 85.2883 142.403 85.6283 142.551C86.3082 142.851 87.2862 143.32 88.5537 143.858C91.0972 144.919 94.8076 146.277 99.3951 147.334C99.6805 147.402 99.9702 147.47 100.26 147.542C100.554 147.597 100.852 147.656 101.15 147.715C101.75 147.829 102.358 147.943 102.984 148.062C103.601 148.193 104.243 148.252 104.889 148.354C105.536 148.443 106.19 148.544 106.858 148.62C107.525 148.679 108.201 148.743 108.889 148.806C109.229 148.836 109.573 148.865 109.922 148.899C110.27 148.916 110.618 148.929 110.971 148.946C111.672 148.975 112.381 149.005 113.099 149.035C113.817 149.035 114.539 149.026 115.265 149.026C121.086 148.937 127.273 148.083 133.2 146.34C139.126 144.606 144.746 141.967 149.602 138.905C154.467 135.842 158.555 132.349 161.741 129.079C162.521 128.246 163.277 127.455 163.978 126.685C164.641 125.886 165.27 125.129 165.866 124.414C166.475 123.716 166.966 123.001 167.445 122.358C167.919 121.711 168.351 121.119 168.746 120.586C169.308 119.715 169.777 118.991 170.139 118.431C170.619 117.688 170.409 116.696 169.669 116.211V116.211C168.571 115.492 167.103 115.753 166.319 116.806C166.043 117.176 165.729 117.597 165.38 118.065C163.78 119.964 161.543 122.726 158.358 125.522C155.214 128.348 151.252 131.304 146.643 133.791C142.047 136.282 136.83 138.317 131.441 139.514C126.052 140.715 120.528 141.1 115.403 140.838C114.765 140.8 114.127 140.762 113.502 140.723C112.877 140.656 112.26 140.588 111.647 140.52C111.34 140.487 111.038 140.453 110.736 140.423C110.438 140.377 110.136 140.33 109.842 140.284C109.25 140.191 108.663 140.097 108.083 140.004C107.508 139.903 106.946 139.772 106.388 139.658C105.834 139.535 105.284 139.45 104.751 139.298C104.222 139.159 103.697 139.023 103.185 138.892C102.929 138.824 102.677 138.761 102.426 138.693C102.178 138.617 101.934 138.537 101.691 138.465C97.796 137.285 94.6984 135.914 92.5872 134.865C91.5337 134.337 90.7279 133.876 90.1654 133.588C89.8842 133.444 89.6828 133.309 89.5401 133.229C89.4016 133.144 89.3302 133.102 89.3302 133.102L92.0752 127.891L73.4563 127.891C73.4563 127.891 73.7585 129.084 74.2874 130.936L74.2874 130.911Z" fill="url(#paint1_linear_179_618)"/>
    <path opacity="0.1" d="M73.8529 153C92.9067 153 108.353 137.554 108.353 118.5C108.353 99.4462 92.9067 84 73.8529 84C54.7991 84 39.3529 99.4462 39.3529 118.5C39.3529 137.554 54.7991 153 73.8529 153Z" fill="#0976FF"/>
    <path opacity="0.1" d="M114.499 32.3416C122.285 32.3416 128.597 26.0299 128.597 18.244C128.597 10.4582 122.285 4.14648 114.499 4.14648C106.713 4.14648 100.402 10.4582 100.402 18.244C100.402 26.0299 106.713 32.3416 114.499 32.3416Z" fill="#9F7DFF"/>
    <path d="M91.8529 39C91.1089 39 90.5069 39.603 90.5069 40.347V41.256C90.5069 41.999 91.1089 42.603 91.8529 42.603C92.5969 42.603 93.1989 41.999 93.1989 41.256V40.348C93.1989 39.603 92.5969 39 91.8529 39ZM91.8529 52.398C91.1089 52.398 90.5069 53.001 90.5069 53.745V54.652C90.5069 55.396 91.1089 56 91.8529 56C92.5969 56 93.1989 55.396 93.1989 54.652V53.745C93.1989 53.001 92.5969 52.398 91.8529 52.398ZM96.2699 44.431C96.6149 44.431 96.9599 44.3 97.2229 44.036L97.8629 43.396C98.3889 42.87 98.3889 42.016 97.8629 41.491C97.3379 40.964 96.4859 40.964 95.9609 41.488L95.3189 42.13C94.7929 42.656 94.7929 43.51 95.3189 44.035C95.5809 44.299 95.9259 44.431 96.2709 44.431H96.2699V44.431ZM86.4839 50.963L85.8439 51.603C85.3179 52.129 85.3169 52.983 85.8419 53.509C86.1049 53.773 86.4499 53.904 86.7949 53.904C87.1389 53.904 87.4829 53.773 87.7459 53.51L88.3879 52.87C88.9129 52.344 88.9139 51.49 88.3879 50.964C87.8629 50.438 87.0109 50.437 86.4839 50.964V50.963ZM99.0069 46.153H98.0989C97.3569 46.153 96.7529 46.756 96.7529 47.5C96.7529 48.244 97.3569 48.847 98.0989 48.847H99.0069C99.7509 48.847 100.353 48.244 100.353 47.5C100.353 46.756 99.7509 46.153 99.0069 46.153V46.153ZM86.9529 47.5C86.9529 46.756 86.3499 46.153 85.6069 46.153H84.6989C83.9549 46.153 83.3529 46.756 83.3529 47.5C83.3529 48.244 83.9549 48.847 84.6989 48.847H85.6069C86.3499 48.847 86.9529 48.244 86.9529 47.5ZM97.2229 50.963C96.6959 50.437 95.8429 50.438 95.3169 50.963C94.7929 51.491 94.7929 52.343 95.3189 52.87L95.9609 53.51C96.2229 53.773 96.5679 53.904 96.9119 53.904C97.2559 53.904 97.6019 53.773 97.8649 53.509C98.3889 52.982 98.3889 52.129 97.8629 51.603L97.2219 50.963H97.2229ZM86.4829 44.036C86.7469 44.3 87.0909 44.431 87.4349 44.431C87.7789 44.431 88.1249 44.299 88.3879 44.035C88.9129 43.509 88.9119 42.656 88.3869 42.13L87.7449 41.488C87.2189 40.964 86.3669 40.964 85.8409 41.491C85.3159 42.017 85.3169 42.87 85.8419 43.396L86.4829 44.036V44.036Z" fill="#FFB657"/>
    <path d="M129.46 0.512564L132.06 5.26702C132.151 5.43261 132.286 5.56733 132.452 5.65855L137.206 8.25891C137.89 8.63219 137.89 9.61171 137.206 9.98499L132.452 12.5854C132.286 12.6766 132.151 12.8113 132.06 12.9769L129.46 17.7313C129.087 18.4148 128.107 18.4148 127.734 17.7313L125.133 12.9769C125.042 12.8113 124.907 12.6766 124.742 12.5854L119.987 9.98499C119.304 9.61171 119.304 8.63219 119.987 8.25891L124.742 5.65855C124.907 5.56873 125.042 5.43261 125.133 5.26702L127.734 0.512564C128.107 -0.170855 129.087 -0.170855 129.46 0.512564Z" fill="#1094FF"/>
    <path d="M47.7208 20.1353L48.9027 22.2964C48.9442 22.3717 49.0054 22.4329 49.0807 22.4744L51.2418 23.6564C51.5525 23.8261 51.5525 24.2713 51.2418 24.441L49.0807 25.623C49.0054 25.6644 48.9442 25.7257 48.9027 25.8009L47.7208 27.962C47.5511 28.2727 47.1059 28.2727 46.9362 27.962L45.7542 25.8009C45.7127 25.7257 45.6515 25.6644 45.5762 25.623L43.4151 24.441C43.1045 24.2713 43.1045 23.8261 43.4151 23.6564L45.5762 22.4744C45.6515 22.4336 45.7127 22.3717 45.7542 22.2964L46.9362 20.1353C47.1059 19.8247 47.5511 19.8247 47.7208 20.1353Z" fill="#084A90"/>
    <path d="M150.11 105.45L152.39 109.619C152.47 109.764 152.588 109.883 152.734 109.963L156.903 112.243C157.503 112.57 157.503 113.43 156.903 113.757L152.734 116.037C152.588 116.117 152.47 116.236 152.39 116.381L150.11 120.55C149.782 121.15 148.923 121.15 148.596 120.55L146.315 116.381C146.235 116.236 146.117 116.117 145.972 116.037L141.802 113.757C141.203 113.43 141.203 112.57 141.802 112.243L145.972 109.963C146.117 109.884 146.235 109.764 146.315 109.619L148.596 105.45C148.923 104.85 149.782 104.85 150.11 105.45Z" fill="#084A90"/>
    <path d="M207.353 86C207.353 97.0457 198.399 106 187.353 106C176.307 106 167.353 97.0457 167.353 86C167.353 74.9543 176.307 66 187.353 66C198.399 66 207.353 74.9543 207.353 86Z" fill="url(#paint2_radial_179_618)" stroke="#5E7BF2" stroke-width="4"/>
    <path fill-rule="evenodd" clip-rule="evenodd" d="M188.232 78L197.461 94H188.231V91.3273L192.941 91.3289L188.232 83.0296V78Z" fill="white"/>
    <path fill-rule="evenodd" clip-rule="evenodd" d="M188.229 78L179 94H188.231V91.3273L183.52 91.3289L188.229 83.0296V78Z" fill="white"/>
    <path fill-rule="evenodd" clip-rule="evenodd" d="M188.231 85.0898V90.3535L185.311 90.3593L188.231 85.0898Z" fill="white"/>
    <path fill-rule="evenodd" clip-rule="evenodd" d="M188.231 85.0898V90.3535L191.151 90.3593L188.231 85.0898Z" fill="white"/>
    <path d="M42.2246 79.706C42.2246 90.8108 33.2224 99.813 22.1176 99.813C11.0129 99.813 2.01069 90.8108 2.01069 79.706C2.01069 68.6013 11.0129 59.5991 22.1176 59.5991C33.2224 59.5991 42.2246 68.6013 42.2246 79.706Z" fill="url(#paint3_radial_179_618)" stroke="#00F6D2" stroke-width="4.02139"/>
    <path fill-rule="evenodd" clip-rule="evenodd" d="M21.7366 67.3335L34.0522 88.6847H21.7343V85.1181L28.0201 85.1203L21.7366 74.0452V67.3335Z" fill="white"/>
    <path fill-rule="evenodd" clip-rule="evenodd" d="M21.7319 67.3335L9.41626 88.6847H21.7343V85.1181L15.4484 85.1203L21.7319 74.0452V67.3335Z" fill="white"/>
    <path fill-rule="evenodd" clip-rule="evenodd" d="M21.7343 76.7944V83.8185L17.8378 83.8263L21.7343 76.7944Z" fill="white"/>
    <path fill-rule="evenodd" clip-rule="evenodd" d="M21.7342 76.7944V83.8185L25.6307 83.8263L21.7342 76.7944Z" fill="white"/>
    <path fill-rule="evenodd" clip-rule="evenodd" d="M22.5555 79.6182L9.41635 73.9033V80.4729L22.5555 80.2064V79.6182Z" fill="white"/>
    <path fill-rule="evenodd" clip-rule="evenodd" d="M22.5555 79.6182L35.6947 73.9033V80.4729L22.5555 80.2064V79.6182Z" fill="white"/>
    <path d="M72.2165 66.5C72.2165 72.776 67.1289 77.8636 60.8529 77.8636C54.5769 77.8636 49.4893 72.776 49.4893 66.5C49.4893 60.224 54.5769 55.1364 60.8529 55.1364C67.1289 55.1364 72.2165 60.224 72.2165 66.5Z" fill="url(#paint4_radial_179_618)" stroke="#00F6D2" stroke-width="2.27273"/>
    <path fill-rule="evenodd" clip-rule="evenodd" d="M60.6376 59.5073L67.5979 71.5742H60.6362V69.5584L64.1887 69.5597L60.6376 63.3005V59.5073Z" fill="white"/>
    <path fill-rule="evenodd" clip-rule="evenodd" d="M60.6349 59.5073L53.6746 71.5742H60.6362V69.5584L57.0837 69.5597L60.6349 63.3005V59.5073Z" fill="white"/>
    <path fill-rule="evenodd" clip-rule="evenodd" d="M60.6362 64.8545V68.8242L58.4341 68.8286L60.6362 64.8545Z" fill="white"/>
    <path fill-rule="evenodd" clip-rule="evenodd" d="M60.6362 64.8545V68.8242L62.8384 68.8286L60.6362 64.8545Z" fill="white"/>
    <path fill-rule="evenodd" clip-rule="evenodd" d="M61.1005 66.45L53.6747 63.2202V66.9331L61.1005 66.7824V66.45Z" fill="white"/>
    <path fill-rule="evenodd" clip-rule="evenodd" d="M61.1005 66.45L68.5262 63.2202V66.9331L61.1005 66.7824V66.45Z" fill="white"/>
    <path d="M63.7892 106.8C63.7892 120.959 52.3115 132.436 38.1529 132.436C23.9943 132.436 12.5165 120.959 12.5165 106.8C12.5165 92.6415 23.9943 81.1637 38.1529 81.1637C52.3115 81.1637 63.7892 92.6415 63.7892 106.8Z" fill="url(#paint5_radial_179_618)" stroke="#00F6D2" stroke-width="5.12727"/>
    <path fill-rule="evenodd" clip-rule="evenodd" d="M37.667 91.0249L53.3695 118.248H37.6641V113.7L45.6785 113.703L37.667 99.5823V91.0249Z" fill="white"/>
    <path fill-rule="evenodd" clip-rule="evenodd" d="M37.6611 91.0249L21.9586 118.248H37.6641V113.7L29.6496 113.703L37.6611 99.5823V91.0249Z" fill="white"/>
    <path fill-rule="evenodd" clip-rule="evenodd" d="M37.6641 103.088V112.044L32.696 112.053L37.6641 103.088Z" fill="white"/>
    <path fill-rule="evenodd" clip-rule="evenodd" d="M37.6642 103.088V112.044L42.6322 112.053L37.6642 103.088Z" fill="white"/>
    <path fill-rule="evenodd" clip-rule="evenodd" d="M38.7113 106.688L21.9588 99.4014V107.778L38.7113 107.438V106.688Z" fill="white"/>
    <path fill-rule="evenodd" clip-rule="evenodd" d="M38.7113 106.688L55.4638 99.4014V107.778L38.7113 107.438V106.688Z" fill="white"/>
    <path d="M194.08 64C194.08 76.5519 183.905 86.7273 171.353 86.7273C158.801 86.7273 148.626 76.5519 148.626 64C148.626 51.4481 158.801 41.2727 171.353 41.2727C183.905 41.2727 194.08 51.4481 194.08 64Z" fill="url(#paint6_radial_179_618)" stroke="#5E7BF2" stroke-width="4.54545"/>
    <path fill-rule="evenodd" clip-rule="evenodd" d="M171.348 51.2002L183.923 73.0002H171.346V69.3586L177.764 69.3609L171.348 58.053V51.2002Z" fill="white"/>
    <path fill-rule="evenodd" clip-rule="evenodd" d="M171.344 51.2002L158.769 73.0002H171.346V69.3586L164.928 69.3609L171.344 58.053V51.2002Z" fill="white"/>
    <path fill-rule="evenodd" clip-rule="evenodd" d="M171.346 60.8599V68.0316L167.368 68.0395L171.346 60.8599Z" fill="white"/>
    <path fill-rule="evenodd" clip-rule="evenodd" d="M171.346 60.8599V68.0316L175.325 68.0395L171.346 60.8599Z" fill="white"/>
    <defs>
    <linearGradient id="paint0_linear_179_618" x1="40.1849" y1="50.5304" x2="120.111" y2="33.5346" gradientUnits="userSpaceOnUse">
    <stop stop-color="#0379FF"/>
    <stop offset="1" stop-color="#1CC6FF"/>
    </linearGradient>
    <linearGradient id="paint1_linear_179_618" x1="173.081" y1="122.122" x2="96.6409" y2="138.376" gradientUnits="userSpaceOnUse">
    <stop stop-color="#0379FF"/>
    <stop offset="1" stop-color="#1CC6FF"/>
    </linearGradient>
    <radialGradient id="paint2_radial_179_618" cx="0" cy="0" r="1" gradientUnits="userSpaceOnUse" gradientTransform="translate(187.353 86) scale(16)">
    <stop stop-color="#5E7BF2"/>
    <stop offset="1" stop-color="#103051"/>
    </radialGradient>
    <radialGradient id="paint3_radial_179_618" cx="0" cy="0" r="1" gradientUnits="userSpaceOnUse" gradientTransform="translate(22.1176 79.706) scale(22.1176)">
    <stop stop-color="#008471"/>
    <stop offset="1" stop-color="#103051"/>
    </radialGradient>
    <radialGradient id="paint4_radial_179_618" cx="0" cy="0" r="1" gradientUnits="userSpaceOnUse" gradientTransform="translate(60.8529 66.5) scale(12.5)">
    <stop stop-color="#008471"/>
    <stop offset="1" stop-color="#103051"/>
    </radialGradient>
    <radialGradient id="paint5_radial_179_618" cx="0" cy="0" r="1" gradientUnits="userSpaceOnUse" gradientTransform="translate(38.1529 106.8) scale(28.2)">
    <stop stop-color="#008471"/>
    <stop offset="1" stop-color="#103051"/>
    </radialGradient>
    <radialGradient id="paint6_radial_179_618" cx="0" cy="0" r="1" gradientUnits="userSpaceOnUse" gradientTransform="translate(171.353 64) scale(18.1818)">
    <stop stop-color="#5E7BF2"/>
    <stop offset="1" stop-color="#103051"/>
    </radialGradient>
    </defs>
    </svg>
    