<svg width="12" height="12" viewBox="0 0 12 12" fill="none" xmlns="http://www.w3.org/2000/svg">
<path d="M5.4165 3.08341H6.58317V4.25008H5.4165V3.08341ZM5.99984 8.91675C6.32067 8.91675 6.58317 8.65425 6.58317 8.33342V6.00008C6.58317 5.67925 6.32067 5.41675 5.99984 5.41675C5.679 5.41675 5.4165 5.67925 5.4165 6.00008V8.33342C5.4165 8.65425 5.679 8.91675 5.99984 8.91675ZM5.99984 0.166748C2.77984 0.166748 0.166504 2.78008 0.166504 6.00008C0.166504 9.22008 2.77984 11.8334 5.99984 11.8334C9.21984 11.8334 11.8332 9.22008 11.8332 6.00008C11.8332 2.78008 9.21984 0.166748 5.99984 0.166748ZM5.99984 10.6667C3.42734 10.6667 1.33317 8.57258 1.33317 6.00008C1.33317 3.42758 3.42734 1.33341 5.99984 1.33341C8.57234 1.33341 10.6665 3.42758 10.6665 6.00008C10.6665 8.57258 8.57234 10.6667 5.99984 10.6667Z" fill="white"/>
</svg>
