<svg width="16" height="17" viewBox="0 0 16 17" fill="none" xmlns="http://www.w3.org/2000/svg">
<path d="M7.65844 15.0027C7.85444 15.1074 8.10044 15.1067 8.29644 15.0021C13.6378 12.1327 14.0171 6.52674 14.0124 4.93274C14.0119 4.80462 13.9741 4.67944 13.9035 4.57251C13.8329 4.46559 13.7327 4.38157 13.6151 4.33074L8.24844 1.9534C8.16304 1.91576 8.07071 1.89637 7.97737 1.89648C7.88404 1.8966 7.79175 1.91621 7.70644 1.95407L2.37711 4.3314C2.26124 4.38226 2.16243 4.46536 2.09246 4.57079C2.02249 4.67622 1.9843 4.79955 1.98244 4.92607C1.95977 6.51207 2.27911 12.1301 7.65844 15.0027ZM5.78244 7.36207L7.31111 8.89074L10.1731 6.02874L11.1158 6.9714L7.31111 10.7761L4.83977 8.30474L5.78244 7.36207V7.36207Z" fill="#00F6D2"/>
</svg>
