<svg width="16" height="16" viewBox="0 0 16 16" fill="none" xmlns="http://www.w3.org/2000/svg">
<path d="M6.41328 12.6081C6.8823 13.004 7.36733 13.4133 7.88273 13.86C7.9904 13.9533 8.12415 14 8.25795 14C8.3917 14 8.5255 13.9533 8.63317 13.86C9.14849 13.4134 9.63344 13.0041 10.1025 12.6083C10.9176 11.9202 11.6216 11.3261 12.2324 10.7497C13.4185 9.63072 14.516 8.36057 14.516 6.65859C14.516 5.69117 14.1839 4.78516 13.5809 4.10744C12.9454 3.39329 12.0645 3 11.1005 3C10.0245 3 9.09177 3.50879 8.40316 4.47132C8.35152 4.54347 8.30321 4.61566 8.25795 4.68708C8.21273 4.61562 8.16441 4.54347 8.11277 4.47132C7.42417 3.50879 6.49142 3 5.41541 3C4.45139 3 3.57051 3.39329 2.93511 4.10741C2.3321 4.78513 2 5.69113 2 6.65856C2 7.70986 2.40795 8.67995 3.28375 9.71158C4.04794 10.6116 5.14408 11.5368 6.41328 12.6081Z" stroke="white" stroke-width="1.5"/>
</svg>
