<svg width="18" height="18" viewBox="0 0 18 18" fill="none" xmlns="http://www.w3.org/2000/svg">
<path d="M17 9C17 13.4183 13.4183 17 9 17C4.58172 17 1 13.4183 1 9C1 4.58172 4.58172 1 9 1C13.4183 1 17 4.58172 17 9Z" fill="url(#paint0_radial_691_913)" stroke="#00F6D2" stroke-width="2"/>
<path fill-rule="evenodd" clip-rule="evenodd" d="M8.84519 3.96533L13.8566 12.6535H8.84424V11.2021L11.402 11.203L8.84519 6.69643V3.96533Z" fill="white"/>
<path fill-rule="evenodd" clip-rule="evenodd" d="M8.84329 3.96533L3.83186 12.6535H8.84424V11.2021L6.28644 11.203L8.84329 6.69643V3.96533Z" fill="white"/>
<path fill-rule="evenodd" clip-rule="evenodd" d="M8.84434 7.81519V10.6734L7.25879 10.6765L8.84434 7.81519Z" fill="white"/>
<path fill-rule="evenodd" clip-rule="evenodd" d="M8.84414 7.81519V10.6734L10.4297 10.6765L8.84414 7.81519Z" fill="white"/>
<path fill-rule="evenodd" clip-rule="evenodd" d="M9.17822 8.9639L3.83169 6.63843V9.3117L9.17822 9.20323V8.9639Z" fill="white"/>
<path fill-rule="evenodd" clip-rule="evenodd" d="M9.17822 8.9639L14.5248 6.63843V9.3117L9.17822 9.20323V8.9639Z" fill="white"/>
<defs>
<radialGradient id="paint0_radial_691_913" cx="0" cy="0" r="1" gradientUnits="userSpaceOnUse" gradientTransform="translate(9 9) scale(9)">
<stop stop-color="#008471"/>
<stop offset="1" stop-color="#103051"/>
</radialGradient>
</defs>
</svg>
