<svg width="18" height="18" viewBox="0 0 18 18" fill="none" xmlns="http://www.w3.org/2000/svg">
<path d="M17 9C17 13.4183 13.4183 17 9 17C4.58172 17 1 13.4183 1 9C1 4.58172 4.58172 1 9 1C13.4183 1 17 4.58172 17 9Z" fill="#000A16" stroke="url(#paint0_linear_691_923)" stroke-width="2"/>
<path d="M9.19053 3.71924L13.6439 11.1166H4.73535L9.19053 3.71924ZM9.1901 6.16284L6.93269 9.90024H11.4466L9.1901 6.16284Z" fill="#0B76FF"/>
<g style="mix-blend-mode:lighten">
<path d="M9.18887 13.5713L4.73545 6.17389L13.644 6.17389L9.18887 13.5713ZM9.1893 11.1277L11.4467 7.39029L6.93278 7.39029L9.1893 11.1277Z" fill="#00E3C2"/>
</g>
<path d="M6.78414 4.4487L14.2775 8.42554L6.43836 13.015L6.78414 4.4487ZM7.96456 6.52048L7.78413 10.8518L11.7562 8.52635L7.96456 6.52048Z" fill="#25C0FF"/>
<g style="mix-blend-mode:lighten">
<path d="M11.5843 12.8462L4.09086 8.86939L11.93 4.27989L11.5843 12.8462ZM10.4038 10.7744L10.5843 6.44311L6.61222 8.76858L10.4038 10.7744Z" fill="#FF51FF"/>
</g>
<defs>
<linearGradient id="paint0_linear_691_923" x1="9" y1="0" x2="9" y2="18" gradientUnits="userSpaceOnUse">
<stop stop-color="#A17DFF"/>
<stop offset="1" stop-color="#6F7FFF"/>
</linearGradient>
</defs>
</svg>
