<svg width="16" height="16" viewBox="0 0 16 16" fill="none" xmlns="http://www.w3.org/2000/svg">
<path d="M9.42599 8.00024L13.705 3.72224C14.098 3.32824 14.098 2.68924 13.705 2.29524C13.311 1.90224 12.672 1.90224 12.278 2.29524L7.99999 6.57524L3.72099 2.29524C3.32799 1.90224 2.68899 1.90224 2.29499 2.29524C1.90199 2.68924 1.90199 3.32824 2.29499 3.72224L6.57399 8.00024L2.29499 12.2802C1.90199 12.6732 1.90199 13.3122 2.29499 13.7062C2.68899 14.0992 3.32799 14.0992 3.72099 13.7062L7.99999 9.42624L12.278 13.7062C12.672 14.0992 13.311 14.0992 13.705 13.7062C14.098 13.3122 14.098 12.6732 13.705 12.2792L9.42599 8.00124V8.00024Z" fill="white"/>
</svg>
