<svg width="82" height="88" viewBox="0 0 82 88" fill="none" xmlns="http://www.w3.org/2000/svg">
<g opacity="0.3">
<path fill-rule="evenodd" clip-rule="evenodd" d="M59.0623 61.0646L78.7837 80.8673C80.4521 82.5427 80.3968 85.2138 78.6629 86.8246C77.8469 87.5829 76.772 88 75.6388 88C74.4417 88 73.3246 87.5408 72.494 86.708L52.6228 66.755C46.9804 70.5833 40.381 72.5999 33.4556 72.5999C15.0085 72.5999 0 58.1099 0 40.3C0 22.49 15.0085 8 33.4556 8C51.9028 8 66.9113 22.49 66.9113 40.3C66.9113 47.9228 64.133 55.245 59.0623 61.0646ZM58.1837 40.2997C58.1837 27.1353 47.091 16.4258 33.4556 16.4258C19.8203 16.4258 8.72754 27.1353 8.72754 40.2997C8.72754 53.464 19.8203 64.1736 33.4556 64.1736C47.091 64.1736 58.1837 53.464 58.1837 40.2997Z" fill="white"/>
<path d="M35.3017 51.9851C35.3017 50.8728 34.2986 49.9702 33.0644 49.9702C31.8283 49.9702 30.8253 50.8728 30.8253 51.9851C30.8253 53.0974 31.8283 54 33.0644 54C34.2986 54 35.3017 53.0974 35.3017 51.9851Z" fill="white"/>
<path d="M31.2585 30.9861C30.2536 31.6544 29.6019 32.7945 29.6438 34.3557C29.6675 35.2599 28.8701 36.0102 27.8671 36.0315C26.8622 36.0528 26.0266 35.3369 26.003 34.4327C25.9283 31.5856 27.2627 29.5674 29.0977 28.3487C32.1596 26.3174 36.7198 26.5893 39.2028 29.1055C40.2659 30.1834 40.9813 31.6724 40.9995 33.6021C41.0305 36.8849 39.485 38.8671 37.8102 40.8541C36.5596 42.3382 35.2052 43.8224 35.0523 46.3696C34.9976 47.2722 34.1384 47.9652 33.1354 47.916C32.1323 47.8669 31.3605 47.0953 31.4151 46.1911C31.619 42.8379 33.2628 40.8295 34.9084 38.8752C36.1318 37.4255 37.3806 36.0249 37.3587 33.6283C37.3496 32.6291 37.031 31.8395 36.4813 31.2809C35.1997 29.9819 32.8386 29.9377 31.2585 30.9861Z" fill="white"/>
<path d="M76.8986 23.3054L72.6317 24.4862C71.3833 24.7961 70.1163 24.0422 69.8037 22.805C69.491 21.5656 70.2517 20.3099 71.5 20L75.7669 18.8192C77.0176 18.5093 78.2846 19.2632 78.5973 20.5004C78.9099 21.7399 78.1493 22.9956 76.8986 23.3054Z" fill="white"/>
<path d="M81.0393 5.18332L66.4997 14.8567C65.4591 15.606 63.9984 15.3794 63.2401 14.3457C62.4841 13.3143 62.7127 11.8667 63.7557 11.1151L78.2953 1.44172C79.3359 0.692474 80.7966 0.919096 81.5549 1.95278C82.3109 2.98414 82.0799 4.43176 81.0393 5.18332Z" fill="white"/>
<path d="M62.3337 3.50113L59.9998 7.5C59.3371 8.59612 57.9045 8.94993 56.7985 8.29318C55.6948 7.63875 55.3355 6.21657 55.9982 5.12045L58.3321 1.12159C58.9948 0.0277832 60.4298 -0.326027 61.5334 0.328406C62.6394 0.985151 62.9964 2.40733 62.3337 3.50113Z" fill="white"/>
</g>
</svg>
