<svg width="24" height="24" viewBox="0 0 24 24" fill="none" xmlns="http://www.w3.org/2000/svg">
<path d="M12 24C18.6274 24 24 18.6274 24 12C24 5.37258 18.6274 0 12 0C5.37258 0 0 5.37258 0 12C0 18.6274 5.37258 24 12 24Z" fill="#3F5973"/>
<path d="M5.605 9.32716H17.453L16.369 10.4122C16.3094 10.4675 16.2615 10.5343 16.2283 10.6085C16.195 10.6828 16.1771 10.763 16.1756 10.8443C16.1741 10.9257 16.189 11.0065 16.2194 11.0819C16.2498 11.1574 16.2952 11.2259 16.3527 11.2835C16.4102 11.341 16.4788 11.3863 16.5542 11.4168C16.6297 11.4472 16.7105 11.4621 16.7918 11.4606C16.8732 11.459 16.9534 11.4411 17.0276 11.4079C17.1019 11.3747 17.1687 11.3268 17.224 11.2672L19.341 9.15016C19.4543 9.03672 19.5179 8.88297 19.5179 8.72266C19.5179 8.56235 19.4543 8.40859 19.341 8.29516L17.224 6.17716C17.1681 6.11961 17.1013 6.07375 17.0275 6.04224C16.9538 6.01074 16.8745 5.99423 16.7942 5.99367C16.714 5.9931 16.6345 6.0085 16.5603 6.03896C16.486 6.06942 16.4186 6.11434 16.3619 6.1711C16.3052 6.22786 16.2604 6.29533 16.23 6.36958C16.1997 6.44384 16.1843 6.52339 16.185 6.60361C16.1857 6.68383 16.2023 6.76312 16.2339 6.83686C16.2654 6.91061 16.3114 6.97733 16.369 7.03316L17.453 8.11716H5.605C5.44454 8.11716 5.29066 8.1809 5.1772 8.29436C5.06374 8.40782 5 8.5617 5 8.72216C5 8.88261 5.06374 9.0365 5.1772 9.14996C5.29066 9.26342 5.44454 9.32716 5.605 9.32716ZM18.914 13.9762H7.065L8.15 12.8922C8.20762 12.8363 8.25356 12.7696 8.28514 12.6959C8.31673 12.6221 8.33334 12.5428 8.33399 12.4626C8.33465 12.3824 8.31935 12.3028 8.28897 12.2286C8.2586 12.1543 8.21376 12.0869 8.15706 12.0301C8.10037 11.9733 8.03295 11.9284 7.95874 11.898C7.88452 11.8675 7.80499 11.8521 7.72476 11.8527C7.64454 11.8532 7.56523 11.8697 7.49145 11.9012C7.41767 11.9327 7.35089 11.9786 7.295 12.0362L5.177 14.1542C5.06372 14.2676 5.0001 14.4213 5.0001 14.5817C5.0001 14.742 5.06372 14.8957 5.177 15.0092L7.295 17.1262C7.35097 17.1826 7.41756 17.2274 7.49093 17.258C7.56431 17.2886 7.64301 17.3043 7.7225 17.3043C7.80199 17.3043 7.88069 17.2886 7.95407 17.258C8.02744 17.2274 8.09403 17.1826 8.15 17.1262C8.26328 17.0127 8.3269 16.859 8.3269 16.6987C8.3269 16.5383 8.26328 16.3846 8.15 16.2712L7.065 15.1862H18.914C19.0745 15.1862 19.2283 15.1224 19.3418 15.009C19.4553 14.8955 19.519 14.7416 19.519 14.5812C19.519 14.4207 19.4553 14.2668 19.3418 14.1534C19.2283 14.0399 19.0745 13.9762 18.914 13.9762Z" fill="white"/>
</svg>
