<svg width="16" height="16" viewBox="0 0 16 16" fill="none" xmlns="http://www.w3.org/2000/svg">
<path d="M7.99982 3.06332C7.27343 2.39539 6.32263 2.02469 5.33582 2.02466C4.81352 2.0252 4.29647 2.12903 3.81445 2.33017C3.33242 2.53131 2.89493 2.82579 2.52716 3.19666C0.958491 4.77199 0.959158 7.23599 2.52849 8.80466L7.41649 13.6927C7.52982 13.892 7.74849 14.0207 7.99982 14.0207C8.10302 14.0197 8.20455 13.9945 8.29625 13.9471C8.38795 13.8998 8.46726 13.8316 8.52782 13.748L13.4712 8.80466C15.0405 7.23532 15.0405 4.77199 13.4698 3.19399C13.1022 2.8238 12.6651 2.52992 12.1835 2.32925C11.702 2.12857 11.1855 2.02506 10.6638 2.02466C9.67704 2.02482 8.72629 2.39551 7.99982 3.06332ZM12.5272 4.13666C13.5692 5.18399 13.5698 6.81999 12.5285 7.86199L7.99982 12.3907L3.47116 7.86199C2.42982 6.81999 2.43049 5.18399 3.46982 4.13933C3.97649 3.63533 4.63916 3.35799 5.33582 3.35799C6.03249 3.35799 6.69249 3.63532 7.19516 4.13799L7.52849 4.47132C7.59035 4.53329 7.66382 4.58245 7.7447 4.61599C7.82557 4.64953 7.91227 4.66679 7.99982 4.66679C8.08738 4.66679 8.17408 4.64953 8.25495 4.61599C8.33583 4.58245 8.4093 4.53329 8.47116 4.47132L8.80449 4.13799C9.81249 3.13199 11.5205 3.13466 12.5272 4.13666Z" fill="#F93030"/>
<path d="M8.00031 3.06332C7.27391 2.39539 6.32312 2.02469 5.33631 2.02466C4.81401 2.0252 4.29696 2.12903 3.81494 2.33017C3.33291 2.53131 2.89542 2.82579 2.52765 3.19666C0.958979 4.77199 0.959646 7.23599 2.52898 8.80466L7.41698 13.6927C7.53031 13.892 7.74898 14.0207 8.00031 14.0207C8.10351 14.0197 8.20504 13.9945 8.29674 13.9471C8.38844 13.8998 8.46775 13.8316 8.52831 13.748L13.4716 8.80466C15.041 7.23532 15.041 4.77199 13.4703 3.19399C13.1027 2.8238 12.6656 2.52992 12.184 2.32925C11.7025 2.12857 11.186 2.02506 10.6643 2.02466C9.67753 2.02482 8.72678 2.39551 8.00031 3.06332Z" fill="#F93030"/>
</svg>
