<svg width="16" height="17" viewBox="0 0 16 17" fill="none" xmlns="http://www.w3.org/2000/svg">
<path d="M3.5 5.50002H12.6893L11.4697 6.71968C11.329 6.86033 11.25 7.0511 11.25 7.25002C11.25 7.44894 11.329 7.63971 11.4697 7.78036C11.6103 7.92102 11.8011 8.00004 12 8.00004C12.1989 8.00004 12.3897 7.92102 12.5303 7.78036L15.0303 5.28036C15.1 5.21072 15.1552 5.12804 15.1929 5.03704C15.2306 4.94604 15.25 4.84851 15.25 4.75002C15.25 4.65152 15.2306 4.55399 15.1929 4.463C15.1552 4.372 15.1 4.28932 15.0303 4.21968L12.5303 1.71968C12.3897 1.57902 12.1989 1.5 12 1.5C11.8011 1.5 11.6103 1.57902 11.4697 1.71968C11.329 1.86033 11.25 2.0511 11.25 2.25002C11.25 2.44894 11.329 2.63971 11.4697 2.78036L12.6893 4.00002H3.5C3.30109 4.00002 3.11032 4.07904 2.96967 4.21969C2.82902 4.36034 2.75 4.55111 2.75 4.75002C2.75 4.94893 2.82902 5.1397 2.96967 5.28035C3.11032 5.421 3.30109 5.50002 3.5 5.50002Z" fill="#00F6D2"/>
<path d="M12.5 10.5H3.31068L4.53037 9.28036C4.67103 9.13971 4.75005 8.94894 4.75005 8.75002C4.75005 8.5511 4.67103 8.36033 4.53037 8.21968C4.38971 8.07902 4.19894 8 4.00003 8C3.80111 8 3.61034 8.07902 3.46968 8.21968L0.969684 10.7197C0.900036 10.7893 0.844787 10.872 0.807094 10.963C0.769401 11.054 0.75 11.1515 0.75 11.25C0.75 11.3485 0.769401 11.446 0.807094 11.537C0.844787 11.628 0.900036 11.7107 0.969684 11.7804L3.46968 14.2804C3.61034 14.421 3.80111 14.5 4.00003 14.5C4.19894 14.5 4.38971 14.421 4.53037 14.2804C4.67103 14.1397 4.75005 13.9489 4.75005 13.75C4.75005 13.5511 4.67103 13.3603 4.53037 13.2197L3.31068 12H12.5C12.6989 12 12.8897 11.921 13.0304 11.7803C13.171 11.6397 13.25 11.4489 13.25 11.25C13.25 11.0511 13.171 10.8603 13.0304 10.7197C12.8897 10.579 12.6989 10.5 12.5 10.5Z" fill="#00F6D2"/>
</svg>
